<svg xmlns="http://www.w3.org/2000/svg" viewBox="0 0 36.82 47.89"><defs><style>.cls-1{fill:#fff88e;}.cls-2{fill:#0053dc;}</style></defs><g id="Calque_2" data-name="Calque 2"><g id="Calque_1-2" data-name="Calque 1"><path class="cls-1" d="M35.48,37c-.79,4-3.55,9-13,10.3S6.29,34.76,6.29,34.76s-7.5-10.3-5.53-13,4.74,0,4.74,0l6.31,7.17-.2-22.62S10.82.5,14.77.5s3.15,5.82,3.15,5.82v8.31c.1-1.11.55-2.26,2.17-2.26,2.11,0,3.33,2.92,3.75,5.15,0,0,2-6.73,5.76-.95a3.89,3.89,0,0,1,.25.4c.11.16.21.33.31.51v.7a1.27,1.27,0,0,1,0-.2c0-.41.08-.62.22-.72,0,.08.05.16.07.24s.09.37.14.6a3.5,3.5,0,0,1,1.15-.77,7.3,7.3,0,0,0,1.36.12c2.37,0,2.77,5.1,3.16,10.92S35.75,35.62,35.48,37Z"/><path class="cls-2" d="M36.71,27.33c-.37-5.46-.75-9.77-3.23-10.15a.9.9,0,0,1-.21,0h-.16l-.48,0h0a2.85,2.85,0,0,0-.86.2,3.5,3.5,0,0,0-1.15.77c-.05-.23-.09-.43-.14-.6s-.05-.16-.07-.24a4.44,4.44,0,0,0-.31-.72,4.57,4.57,0,0,0-.37-.63l-.07-.09c-1.1-1.53-2.18-2.24-3.23-2.08s-2,1.36-2.47,2.33c-.66-2.15-1.94-4.2-3.84-4.2h0a2.48,2.48,0,0,0-1.73.6V6.4c0-.13.43-3.31-1-5.14A3.11,3.11,0,0,0,14.77,0a3.11,3.11,0,0,0-2.63,1.26c-1.39,1.83-1,5-1,5.07l.19,21.39L5.78,21.39a4.57,4.57,0,0,0-3.18-1.3A3.07,3.07,0,0,0,.42,21.45C-1.68,24.31,4.66,33.31,5.9,35c.27.55,6.34,12.89,15.25,12.89a10.74,10.74,0,0,0,1.37-.09,18.67,18.67,0,0,0,9.15-3.51,11.69,11.69,0,0,0,4.24-7.18A27,27,0,0,0,36.71,27.33ZM30.28,18c.08,0,0,.11-.12.24s-.3.33-.34.28L30.54,21l.06.22a4.78,4.78,0,0,1,.26-1.64,2.21,2.21,0,0,1,2.25-1.46c1.86,0,2.31,3.23,2.72,9.26.07,1,.1,1.91.1,2.72a24.21,24.21,0,0,1-.88,6.76C34,42.43,29.71,45.77,22.41,46.8,13.35,48.08,6.74,34.66,6.63,34.44,3.82,30.58-.17,23.82,1.1,22.09a2.21,2.21,0,0,1,1.57-1h.2a3.15,3.15,0,0,1,1.61.53,4.78,4.78,0,0,1,.71.52l6.31,7.16a.39.39,0,0,0,.48.11.5.5,0,0,0,.27-.47l-.2-22.68s-.37-2.85.75-4.34a2.32,2.32,0,0,1,2-.91,2.29,2.29,0,0,1,2,.91c1.13,1.48.76,4.31.75,4.41v8.27a12.69,12.69,0,0,0,0,1.37c0,.12,0,.22,0,.31v.13a.48.48,0,0,0,.44.5.46.46,0,0,0,.45-.49V14.64a2.35,2.35,0,0,1,.45-1.28,1.57,1.57,0,0,1,1.28-.49c1.91,0,3,3,3.32,4.76a.47.47,0,0,0,.41.39.46.46,0,0,0,.44-.34c.23-.76,1.07-2.78,2.26-2.94.86-.13,1.87.73,2.94,2.46l.32.55,0,0a.38.38,0,0,0,.3.18h.06A.2.2,0,0,0,30.28,18Z"/><line class="cls-1" x1="17.93" y1="15.4" x2="17.93" y2="26.03"/><path class="cls-2" d="M17.93,26.53a.47.47,0,0,1-.44-.5V15.4a.47.47,0,0,1,.44-.5.47.47,0,0,1,.44.5V26A.48.48,0,0,1,17.93,26.53Z"/><path class="cls-1" d="M29.86,17s1.88,5.92-.49,9.51Z"/><path class="cls-2" d="M29.72,26.78a.43.43,0,0,1-.35.2.45.45,0,0,1-.27-.1.56.56,0,0,1-.09-.7,4.37,4.37,0,0,0,.41-.77c1-2.27.7-5.21.35-6.9-.13-.68-.27-1.16-.31-1.31l0-.06a.53.53,0,0,1,.16-.57.41.41,0,0,1,.11-.07.4.4,0,0,1,.37,0,4.44,4.44,0,0,1,.31.72c0,.08.05.16.07.24s.09.37.14.6c.09.43.19.94.26,1.51C31.14,21.73,31.15,24.62,29.72,26.78Z"/><path class="cls-1" d="M23.91,17.6a30.6,30.6,0,0,1-.46,10.22Z"/><path class="cls-2" d="M23.45,28.32h-.09a.51.51,0,0,1-.34-.6,30.79,30.79,0,0,0,.46-10,.49.49,0,0,1,.34-.59.45.45,0,0,1,.52.39,31.12,31.12,0,0,1-.46,10.43A.46.46,0,0,1,23.45,28.32Z"/></g></g></svg>