<!-- Generator: Adobe Illustrator 24.3.0, SVG Export Plug-In  -->
<svg version="1.1" xmlns="http://www.w3.org/2000/svg" xmlns:xlink="http://www.w3.org/1999/xlink" x="0px" y="0px" width="95.72px" height="96.36px" viewBox="0 0 95.72 96.36" style="overflow:visible;enable-background:new 0 0 95.72 96.36;" xml:space="preserve">
<style type="text/css">
	.st0{fill:#0053DC;}
</style>
<defs>
</defs>
<g>
	<path class="st0" d="M0,35.75l4.89-10.23c2.44-5.12,4.45-5.81,6.07-5.04c1.12,0.53,1.82,1.73,1.09,4.01l0.02,0.01   c1.48-2.53,2.99-3.02,4.36-2.36c2.14,1.02,2.33,3.48-0.12,8.62l-4.97,10.4L0,35.75z M9.4,27.99c0.86-1.81,0.87-2.53,0.2-2.85   c-0.57-0.27-1.19,0.11-2.08,1.97l-2.37,4.96l1.88,0.9L9.4,27.99z M13.3,29.96c0.95-2,1.01-3.01,0.27-3.36   c-0.65-0.31-1.25,0.23-2.21,2.24l-2.41,5.05l2.02,0.96L13.3,29.96z"/>
	<path class="st0" d="M33.38,12.82l-7.96,4.19l-0.3,2.62l-5.46,2.87l2.36-15.43l5.96-3.14l14.06,6.8l-6.35,3.34L33.38,12.82z    M30.9,11.47l-4.52-2.43l-0.03,0.02l-0.6,5.13L30.9,11.47z"/>
	<path class="st0" d="M42.66,5.18c0.56-3.84,4.72-5.95,11.83-4.92c7.37,1.07,9.65,4.24,9.33,6.72c-0.01,0.09-0.04,0.26-0.08,0.39   l-4.78-0.69l0.01-0.08c0.13-0.91-1.08-2.24-4.66-2.76c-3.74-0.54-5.7,0.45-5.95,2.17c-0.23,1.63,1.07,3.15,5.13,3.74   c3.46,0.5,5.12-0.2,5.28-1.26l0.01-0.09l4.78,0.69c0,0.13-0.03,0.3-0.03,0.34c-0.4,2.74-3.68,4.85-10.88,3.81   C44.93,12.11,42.15,8.7,42.66,5.18z"/>
	<path class="st0" d="M73.63,6.3l3.87,3.96l-4.06,3.96l0.03,0.03l10.71,2.86l5.45,5.59l-10.35-2.84L81,31.84l-6.09-6.24l-0.9-7.37   l-3.58-1.07l-1.93,1.88l-3.87-3.96L73.63,6.3z"/>
	<path class="st0" d="M91.52,48.04l0.45-6.71l3.75,0.25l-1.27,18.94l-3.75-0.25l0.45-6.69L82.37,53l0.37-5.54L91.52,48.04z"/>
	<path class="st0" d="M87.31,64.32c3.12,2.43,2.39,7.5-1.98,13.12c-4.37,5.62-9.11,7.58-12.23,5.15c-3.21-2.5-2.59-7.43,1.89-13.19   C79.47,63.64,84.1,61.82,87.31,64.32z M76.63,78.02c1.4,1.09,3.72,0.01,5.88-2.78c2.17-2.79,2.64-5.3,1.24-6.39   c-1.49-1.16-3.69-0.16-5.94,2.73C75.56,74.48,75.14,76.86,76.63,78.02z"/>
	<path class="st0" d="M53.25,91.72l6.7-0.49l0.27,3.75L41.3,96.36l-0.27-3.75l6.69-0.49l-0.64-8.78l5.54-0.4L53.25,91.72z"/>
	<path class="st0" d="M36.55,89.79c-1.97,3.43-7.09,3.41-13.26-0.14s-8.76-7.96-6.8-11.39c2.03-3.53,7-3.6,13.32,0.04   C36.13,81.93,38.58,86.26,36.55,89.79z M21.5,81.12c-0.88,1.54,0.5,3.68,3.57,5.44s5.61,1.88,6.5,0.34   c0.94-1.64-0.35-3.68-3.53-5.51C24.86,79.57,22.44,79.48,21.5,81.12z"/>
	<path class="st0" d="M7.54,76.13l-4.4-9.62c-2.21-4.84-2.38-8.08,0.7-9.49c2.99-1.37,5.25,0.56,7.54,5.57l2.15,4.7l3.12-1.43   l2.3,5.03L7.54,76.13z M9.01,63.79c-0.96-2.1-1.8-3.06-2.79-2.61c-0.97,0.45-0.81,1.71,0.16,3.83l2.1,4.6l2.64-1.21L9.01,63.79z"/>
</g>
</svg>