<!-- Generator: Adobe Illustrator 24.2.1, SVG Export Plug-In  -->
<svg version="1.1" xmlns="http://www.w3.org/2000/svg" xmlns:xlink="http://www.w3.org/1999/xlink" x="0px" y="0px" width="47.89px" height="41.78px" viewBox="0 0 47.89 41.78" style="overflow:visible;enable-background:new 0 0 47.89 41.78;" xml:space="preserve">
<style type="text/css">
	.st0{fill:#FFF88E;}
	.st1{fill:#0053DC;}
	.st2{fill:#FFF88E;stroke:#0053DC;stroke-miterlimit:10;}
</style>
<defs>
</defs>
<g>
	<g>
		<g>
			<path class="st0" d="M10.89,40.27c-4.03-0.9-8.96-4.03-10.3-14.78S13.13,7.13,13.13,7.13s10.3-8.51,12.99-6.27s0,5.37,0,5.37     l-7.17,7.17l22.62-0.22c0,0,5.82-0.9,5.82,3.58s-5.82,3.58-5.82,3.58H31.49c0.95,0.02,4.03-0.56,4.03,2.46     c0,2.39-2.92,3.77-5.15,4.25c0,0,7.39,2.46,0.04,7.17h6.23c1.79,0,5.6,0.67,5.6,3.36c0,2.69-0.9,3.13-6.72,3.58     S12.28,40.58,10.89,40.27z"/>
			<path class="st1" d="M0,24.01C0,13.89,12.34,7,12.89,6.7c1.7-1.41,10.69-8.6,13.55-6.22C27.26,1.17,27.72,2,27.8,2.95     c0.16,1.89-1.24,3.54-1.3,3.61l-6.33,6.33l21.39-0.21c0.06-0.01,3.23-0.48,5.07,1.09c0.83,0.71,1.26,1.72,1.26,2.99     s-0.42,2.27-1.26,2.99c-1.84,1.58-5.01,1.11-5.14,1.09l-6.07,0c0.4,0.49,0.6,1.15,0.6,1.96c0,0,0,0,0,0.01     c0,2.17-2.05,3.62-4.2,4.37c0.97,0.54,2.16,1.47,2.33,2.8c0.16,1.21-0.58,2.47-2.17,3.75h4.67c2.11,0,6.1,0.81,6.1,3.86     c0,3.18-1.45,3.64-7.18,4.08c-5.99,0.46-23.41-0.6-24.78-0.91l0,0c-6-1.33-9.59-6.45-10.69-15.21C0.03,25.03,0,24.51,0,24.01z      M26.81,3.25c0-0.07,0-0.15-0.01-0.22c-0.06-0.69-0.39-1.27-1.01-1.78c-1.72-1.44-8.49,3.08-12.35,6.27     C13.24,7.65-0.19,15.15,1.09,25.43C2.13,33.72,5.46,38.55,11,39.79l0,0c1.16,0.26,18.59,1.34,24.48,0.89     c6.03-0.46,6.25-0.98,6.25-3.08c0-2.34-3.68-2.86-5.1-2.86h-6.23c-0.22,0-0.42-0.15-0.48-0.36c-0.06-0.21,0.02-0.44,0.21-0.56     c2.11-1.35,3.15-2.63,3.02-3.71c-0.17-1.35-2.18-2.31-2.94-2.57c-0.21-0.07-0.34-0.27-0.34-0.5c0.01-0.22,0.17-0.41,0.39-0.46     c1.76-0.38,4.75-1.6,4.76-3.77c0,0,0,0,0,0c0-0.66-0.16-1.14-0.49-1.46c-0.33-0.31-0.79-0.45-1.28-0.5l-1.63,0     c-0.05,0-0.1,0-0.14,0c-0.27-0.01-0.5-0.23-0.49-0.51c0-0.27,0.23-0.49,0.5-0.49h0.13c0.09,0,0.2-0.01,0.31-0.01     c0.38-0.02,0.87-0.04,1.37,0.01h8.26c0.1,0.01,2.93,0.42,4.42-0.86c0.61-0.52,0.91-1.25,0.91-2.23c0-0.98-0.3-1.71-0.91-2.23     c-1.49-1.28-4.31-0.86-4.34-0.86L18.96,13.9c-0.2,0-0.39-0.12-0.47-0.31c-0.08-0.19-0.04-0.4,0.11-0.55l7.17-7.17l0,0     C25.77,5.88,26.81,4.63,26.81,3.25z M10.89,40.27L10.89,40.27L10.89,40.27z"/>
		</g>
	</g>
	<g>
		<line class="st0" x1="32.49" y1="20.35" x2="21.87" y2="20.35"/>
		<path class="st1" d="M21.37,20.35c0-0.28,0.22-0.5,0.5-0.5h10.63c0.28,0,0.5,0.22,0.5,0.5s-0.22,0.5-0.5,0.5H21.87    C21.59,20.85,21.37,20.62,21.37,20.35z"/>
	</g>
	<g>
		<path class="st0" d="M30.92,33.89c0,0-5.92,2.13-9.5-0.55"/>
		<path class="st1" d="M20.92,33.33c0-0.1,0.03-0.21,0.1-0.3c0.17-0.22,0.48-0.27,0.7-0.1c3.32,2.49,8.98,0.5,9.04,0.48    c0.26-0.09,0.55,0.04,0.64,0.3c0.09,0.26-0.04,0.55-0.3,0.64c-0.25,0.09-6.22,2.19-9.97-0.63C20.99,33.64,20.92,33.48,20.92,33.33    z"/>
	</g>
	<g>
		<path class="st0" d="M30.29,27.13c0,0-4.06,0.83-10.22-0.52"/>
		<path class="st1" d="M19.57,26.62c0-0.04,0-0.07,0.01-0.11c0.06-0.27,0.33-0.44,0.59-0.38c5.97,1.3,9.97,0.52,10.01,0.52    c0.27-0.05,0.53,0.12,0.59,0.39c0.05,0.27-0.12,0.53-0.39,0.59c-0.17,0.03-4.24,0.83-10.43-0.52    C19.73,27.05,19.57,26.85,19.57,26.62z"/>
	</g>
	<g>
		<path class="st2" d="M21.34,34.71"/>
	</g>
	<g>
		<g>
			<path class="st1" d="M11.42,25.02c1.67-0.29,3.31-0.76,4.94-1.24c0.07-0.02,0.12-0.09,0.12-0.16c0.02-0.46-0.55-0.53-1-0.53     c-0.04-0.03-0.08-0.05-0.14-0.05c-1.46,0.2-2.92,0.43-4.37,0.7c-0.71,0.13-1.42,0.27-2.13,0.42c-0.07,0.02-0.15,0.03-0.22,0.05     c-0.45,0.09-0.89,0.21-1.31,0.4c-0.17,0.08-0.06,0.3,0.08,0.31c0.02,0,0.04,0,0.06,0.01c0,0.01,0,0.02,0.01,0.04     c0.3,0.5,1.09,0.34,1.57,0.32C9.83,25.26,10.63,25.16,11.42,25.02z M12.3,24.15c-0.1,0.02-0.21,0.04-0.31,0.07     c-0.01-0.01-0.02-0.01-0.03-0.02C12.07,24.18,12.19,24.17,12.3,24.15z M8.35,24.63c-0.01,0-0.03,0.01-0.04,0.01     C8.32,24.63,8.34,24.63,8.35,24.63C8.35,24.62,8.35,24.62,8.35,24.63z M11.08,24.74c0.05-0.01,0.1-0.01,0.14-0.02     c-0.07,0.01-0.14,0.02-0.22,0.04C11.03,24.75,11.05,24.74,11.08,24.74z M8.12,24.98c0.19,0.01,0.38,0.01,0.57,0.01     C8.51,25,8.3,25.01,8.12,24.98z"/>
		</g>
		<g>
			<path class="st1" d="M10.71,28.48c0.11-0.01,0.23-0.03,0.34-0.05c0.49-0.05,0.98-0.13,1.47-0.23c0.11-0.02,0.21-0.04,0.32-0.06     c0.74-0.15,1.49-0.3,2.23-0.48c0.61-0.15,1.2-0.34,1.71-0.7c0.08-0.06,0.1-0.14,0.06-0.23c-0.22-0.52-1.14-0.35-1.57-0.31     c-0.78,0.07-1.54,0.25-2.3,0.44c-0.28,0.07-0.55,0.14-0.83,0.2c-0.81,0.13-1.62,0.26-2.43,0.4c-0.33,0.06-0.91,0.12-1.29,0.33     C8.28,27.8,8.14,27.82,8,27.84c-0.18,0.02-0.14,0.28,0,0.32c0.03,0.01,0.07,0.02,0.1,0.03c0.01,0.18,0.21,0.32,0.41,0.36     C9.2,28.68,10.02,28.55,10.71,28.48z M16.37,26.81c0-0.02,0-0.05,0-0.07c0.02,0.01,0.04,0.02,0.06,0.03     C16.41,26.79,16.39,26.8,16.37,26.81z M15.28,27.21c0.21-0.05,0.42-0.11,0.62-0.16c-0.2,0.08-0.4,0.15-0.61,0.21     C15.3,27.24,15.29,27.23,15.28,27.21z"/>
		</g>
	</g>
	<g>
		<path class="st1" d="M3.73,26.3c0-0.12,0-0.23,0.02-0.35c0.17-1.92,1.71-3.7,4.13-4.75c3.22-1.39,6.87-1.42,10.09-1.43    c0.28,0,0.5,0.22,0.5,0.5c0,0,0,0,0,0c0,0.28-0.22,0.5-0.5,0.5c-3.13,0.02-6.67,0.04-9.7,1.35c-0.78,0.34-3.33,1.62-3.54,3.92    c-0.13,1.3,0.63,2.7,1.89,3.58c1.07,0.74,2.46,1.16,4.25,1.26c0.93,0.05,1.88,0.02,2.81-0.01c0.64-0.02,1.29-0.04,1.93-0.04    c0.27,0,0.5,0.23,0.5,0.5c0,0,0,0,0,0c0,0.28-0.23,0.5-0.5,0.5c-0.63,0-1.26,0.02-1.89,0.04c-0.95,0.03-1.93,0.06-2.9,0.01    c-1.98-0.11-3.54-0.58-4.76-1.44C4.61,29.44,3.73,27.84,3.73,26.3z"/>
	</g>
</g>
</svg>